Control Set_states
version=1
nRows=31
nColumns=17
inDegrees=yes

# SIMM Motion File Header:
name Control Set_states
datacolumns 17
datarows 31
otherdata 1
range 0.19372215 0.27040184
endheader
time	/jointset/r_shoulder/r_shoulder_elev/value	/jointset/r_shoulder/r_shoulder_elev/speed	/jointset/r_elbow/r_elbow_flex/value	/jointset/r_elbow/r_elbow_flex/speed	/forceset/TRIlong/activation	/forceset/TRIlong/fiber_length	/forceset/TRIlat/activation	/forceset/TRIlat/fiber_length	/forceset/TRImed/activation	/forceset/TRImed/fiber_length	/forceset/BIClong/activation	/forceset/BIClong/fiber_length	/forceset/BICshort/activation	/forceset/BICshort/fiber_length	/forceset/BRA/activation	/forceset/BRA/fiber_length
      0.19372215	     -1.53423953	    -14.01357378	     10.06079616	    100.34662609	      0.00050027	      0.13954381	      0.00050027	      0.07429210	      0.00050027	      0.06932051	      0.00050029	      0.14715164	      0.00050027	      0.14623013	      0.00050027	      0.09103459
      0.19616883	     -1.56850106	    -13.99122464	     10.30699005	    100.89391259	      0.00018526	      0.13961690	      0.00018526	      0.07438834	      0.00018526	      0.06941678	      0.00018528	      0.14710354	      0.00018526	      0.14617341	      0.00018526	      0.09097453
      0.19935640	     -1.61303296	    -13.94736471	     10.62965378	    101.54736595	     -0.00022514	      0.13971320	     -0.00022514	      0.07451473	     -0.00022514	      0.06954189	     -0.00022512	      0.14703957	     -0.00022514	      0.14609814	     -0.00022514	      0.09089590
      0.20189292	     -1.64835198	    -13.89892813	     10.88783302	    102.01426820	     -0.00055172	      0.13979069	     -0.00055172	      0.07461619	     -0.00055172	      0.06964406	     -0.00055170	      0.14698749	     -0.00055172	      0.14603714	     -0.00055172	      0.09083309
      0.20442943	     -1.68353478	    -13.84058968	     11.14714219	    102.44007621	     -0.00087830	      0.13986890	     -0.00087830	      0.07471822	     -0.00087830	      0.06974458	     -0.00087828	      0.14693451	     -0.00087830	      0.14597519	     -0.00087830	      0.09077005
      0.20696595	     -1.71855484	    -13.77001572	     11.40747269	    102.81783884	     -0.00120487	      0.13994779	     -0.00120487	      0.07482087	     -0.00120487	      0.06984782	     -0.00120485	      0.14688058	     -0.00120487	      0.14591230	     -0.00120487	      0.09070685
      0.20950247	     -1.75338235	    -13.68934338	     11.66870605	    103.15360083	     -0.00153145	      0.14002735	     -0.00153145	      0.07492407	     -0.00153145	      0.06994958	     -0.00153143	      0.14682573	     -0.00153145	      0.14584849	     -0.00153145	      0.09064349
      0.21203898	     -1.78799056	    -13.59652008	     11.93073220	    103.44123911	     -0.00185803	      0.14010754	     -0.00185803	      0.07502777	     -0.00185803	      0.07005385	     -0.00185801	      0.14676996	     -0.00185802	      0.14578378	     -0.00185802	      0.09058002
      0.21457550	     -1.82234977	    -13.49362536	     12.19343217	    103.68663312	     -0.00218460	      0.14018832	     -0.00218460	      0.07513193	     -0.00218460	      0.07015651	     -0.00218458	      0.14671329	     -0.00218460	      0.14571819	     -0.00218460	      0.09051645
      0.21711202	     -1.85643335	    -13.37853530	     12.45669540	    103.88344998	     -0.00251118	      0.14026967	     -0.00251118	      0.07523648	     -0.00251118	      0.07026176	     -0.00251116	      0.14665574	     -0.00251118	      0.14565174	     -0.00251118	      0.09045283
      0.21964853	     -1.89021155	    -13.25356453	     12.72040196	    104.03825367	     -0.00283775	      0.14035156	     -0.00283775	      0.07534140	     -0.00283775	      0.07036499	     -0.00283774	      0.14659732	     -0.00283775	      0.14558446	     -0.00283775	      0.09038916
      0.22218505	     -1.92365811	    -13.11625004	     12.98444156	    104.14372341	     -0.00316433	      0.14043394	     -0.00316433	      0.07544661	     -0.00316433	      0.07047115	     -0.00316431	      0.14653805	     -0.00316433	      0.14551636	     -0.00316433	      0.09032549
      0.22472157	     -1.95674314	    -12.96941487	     13.24869300	    104.20790338	     -0.00349091	      0.14051680	     -0.00349091	      0.07555208	     -0.00349091	      0.07057461	     -0.00349089	      0.14647796	     -0.00349091	      0.14544748	     -0.00349091	      0.09026184
      0.22725809	     -1.98944103	    -12.80997234	     13.51304709	    104.22165739	     -0.00381748	      0.14060009	     -0.00381748	      0.07565774	     -0.00381748	      0.07068164	     -0.00381747	      0.14641706	     -0.00381748	      0.14537783	     -0.00381748	      0.09019823
      0.22952486	     -2.01830955	    -12.65979997	     13.74927576	    104.19981801	     -0.00410933	      0.14067486	     -0.00410933	      0.07575231	     -0.00410933	      0.07077428	     -0.00410931	      0.14636196	     -0.00410933	      0.14531497	     -0.00410933	      0.09014146
      0.23179164	     -2.04682695	    -12.49982163	     13.98541107	    104.13822880	     -0.00440118	      0.14074994	     -0.00440118	      0.07584696	     -0.00440118	      0.07086931	     -0.00440116	      0.14630626	     -0.00440118	      0.14525155	     -0.00440118	      0.09008476
      0.23463200	     -2.08203293	    -12.28821888	     14.28103431	    104.01262553	     -0.00476688	      0.14084438	     -0.00476688	      0.07596560	     -0.00476688	      0.07098650	     -0.00476686	      0.14623565	     -0.00476688	      0.14517131	     -0.00476688	      0.09001385
      0.23709860	     -2.11210416	    -12.09249364	     14.53740648	    103.85409857	     -0.00508445	      0.14092672	     -0.00508445	      0.07606866	     -0.00508445	      0.07109048	     -0.00508443	      0.14617357	     -0.00508445	      0.14510097	     -0.00508445	      0.08995244
      0.23956521	     -2.14168102	    -11.88810349	     14.79333698	    103.65662916	     -0.00540203	      0.14100931	     -0.00540203	      0.07617166	     -0.00540203	      0.07119173	     -0.00540201	      0.14611086	     -0.00540203	      0.14503005	     -0.00540203	      0.08989120
      0.24203181	     -2.17074076	    -11.67252987	     15.04872556	    103.41273652	     -0.00571960	      0.14109212	     -0.00571960	      0.07627457	     -0.00571960	      0.07129543	     -0.00571958	      0.14604752	     -0.00571960	      0.14495857	     -0.00571960	      0.08983015
      0.24449841	     -2.19925732	    -11.44832380	     15.30346199	    103.12970283	     -0.00603718	      0.14117513	     -0.00603718	      0.07637734	     -0.00603718	      0.07139662	     -0.00603716	      0.14598357	     -0.00603718	      0.14488658	     -0.00603718	      0.08976931
      0.24696501	     -2.22720823	    -11.21332057	     15.55744610	    102.80108410	     -0.00635475	      0.14125831	     -0.00635475	      0.07647993	     -0.00635475	      0.07149981	     -0.00635473	      0.14591906	     -0.00635475	      0.14481409	     -0.00635475	      0.08970873
      0.24943161	     -2.25456821	    -10.96971656	     15.81056924	    102.43313643	     -0.00667233	      0.14134161	     -0.00667233	      0.07658228	     -0.00667233	      0.07160079	     -0.00667231	      0.14585401	     -0.00667233	      0.14474115	     -0.00667233	      0.08964840
      0.25189821	     -2.28131509	    -10.71578117	     16.06273146	    102.02068159	     -0.00698990	      0.14142502	     -0.00698990	      0.07668435	     -0.00698990	      0.07170324	     -0.00698988	      0.14578843	     -0.00698990	      0.14466778	     -0.00698990	      0.08958837
      0.25436481	     -2.30742464	    -10.45337073	     16.31382651	    101.56908894	     -0.00730748	      0.14150849	     -0.00730748	      0.07678611	     -0.00730748	      0.07180387	     -0.00730746	      0.14572261	     -0.00730748	      0.14459403	     -0.00730748	      0.08952866
      0.25683141	     -2.33287512	    -10.18107212	     16.56375510	    101.07392662	     -0.00762505	      0.14159200	     -0.00762505	      0.07688748	     -0.00762505	      0.07190537	     -0.00762503	      0.14565609	     -0.00762505	      0.14451992	     -0.00762505	      0.08946928
      0.26009846	     -2.36553007	     -9.80765339	     16.89281455	    100.35813010	     -0.00804568	      0.14170262	     -0.00804568	      0.07702109	     -0.00804568	      0.07203714	     -0.00804566	      0.14556740	     -0.00804568	      0.14442128	     -0.00804568	      0.08939118
      0.26228547	     -2.38669669	     -9.54779844	     17.11173306	     99.83546800	     -0.00832726	      0.14177664	     -0.00832726	      0.07711011	     -0.00832726	      0.07212717	     -0.00832724	      0.14550756	     -0.00832726	      0.14435498	     -0.00832726	      0.08933929
      0.26447247	     -2.40728846	     -9.28213166	     17.32947654	     99.28403703	     -0.00860884	      0.14185062	     -0.00860884	      0.07719870	     -0.00860884	      0.07221491	     -0.00860882	      0.14544750	     -0.00860884	      0.14428849	     -0.00860884	      0.08928771
      0.26755652	     -2.43532260	     -8.89568034	     17.63440587	     98.45170566	     -0.00900591	      0.14195480	     -0.00900591	      0.07732286	     -0.00900591	      0.07233892	     -0.00900589	      0.14536242	     -0.00900591	      0.14419447	     -0.00900591	      0.08921555
      0.27040184	     -2.46011301	     -8.52818521	     17.91337568	     97.63059686	     -0.00937224	      0.14205076	     -0.00937224	      0.07743661	     -0.00937224	      0.07245150	     -0.00937222	      0.14528349	     -0.00937224	      0.14410752	     -0.00937224	      0.08914961
